<?xml version="1.0" encoding="UTF-8"?>
<svg xmlns="http://www.w3.org/2000/svg" xmlns:xlink="http://www.w3.org/1999/xlink" width="210pt" height="210pt" viewBox="0 0 210 210" version="1.1">
<defs>
<linearGradient id="linear0" gradientUnits="userSpaceOnUse" x1="100" y1="172" x2="100" y2="130" gradientTransform="matrix(1.05,0,0,1.05,0.000000105,0)">
<stop offset="0" style="stop-color:rgb(94.117647%,71.764706%,41.176471%);stop-opacity:0.8;"/>
<stop offset="0.7" style="stop-color:rgb(81.960784%,55.686275%,19.607843%);stop-opacity:1;"/>
</linearGradient>
<linearGradient id="linear1" gradientUnits="userSpaceOnUse" x1="100" y1="141" x2="100" y2="138" gradientTransform="matrix(1.312501,0,0,1.312501,-25.722234,-35.688249)">
<stop offset="0.1" style="stop-color:rgb(96.862745%,76.078431%,47.45098%);stop-opacity:1;"/>
<stop offset="1" style="stop-color:rgb(94.117647%,71.764706%,41.176471%);stop-opacity:1;"/>
</linearGradient>
<radialGradient id="radial0" gradientUnits="userSpaceOnUse" cx="125.903" cy="85.096" fx="125.903" fy="85.096" r="13.25" gradientTransform="matrix(-1.039122,0.0399735,0.0600075,0.870061,203.022656,9.408196)">
<stop offset="0" style="stop-color:rgb(100%,100%,100%);stop-opacity:1;"/>
<stop offset="0.544" style="stop-color:rgb(99.215686%,99.607843%,99.607843%);stop-opacity:1;"/>
<stop offset="0.74" style="stop-color:rgb(96.470588%,97.254902%,97.647059%);stop-opacity:1;"/>
<stop offset="0.879" style="stop-color:rgb(91.764706%,93.72549%,94.901961%);stop-opacity:1;"/>
<stop offset="0.992" style="stop-color:rgb(85.098039%,89.019608%,90.980392%);stop-opacity:1;"/>
<stop offset="1" style="stop-color:rgb(84.705882%,88.627451%,90.588235%);stop-opacity:1;"/>
</radialGradient>
<filter id="alpha" filterUnits="objectBoundingBox" x="0%" y="0%" width="100%" height="100%">
  <feColorMatrix type="matrix" in="SourceGraphic" values="0 0 0 0 1 0 0 0 0 1 0 0 0 0 1 0 0 0 1 0"/>
</filter>
<mask id="mask0">
  <g filter="url(#alpha)">
<rect x="0" y="0" width="210" height="210" style="fill:rgb(0%,0%,0%);fill-opacity:0.301961;stroke:none;"/>
  </g>
</mask>
<clipPath id="clip1">
  <rect width="210" height="210"/>
</clipPath>
<g id="surface6" clip-path="url(#clip1)">
<path style=" stroke:none;fill-rule:nonzero;fill:rgb(0%,0%,0%);fill-opacity:1;" d="M 78 82.558594 C 81.132812 82.558594 83.671875 85.09375 83.671875 88.226562 C 83.671875 91.359375 81.132812 93.898438 78 93.898438 C 74.867188 93.898438 72.332031 91.359375 72.332031 88.226562 C 72.332031 85.09375 74.867188 82.558594 78 82.558594 Z M 78 82.558594 "/>
</g>
<mask id="mask1">
  <g filter="url(#alpha)">
<rect x="0" y="0" width="210" height="210" style="fill:rgb(0%,0%,0%);fill-opacity:0.6;stroke:none;"/>
  </g>
</mask>
<clipPath id="clip2">
  <rect width="210" height="210"/>
</clipPath>
<g id="surface9" clip-path="url(#clip2)">
<path style=" stroke:none;fill-rule:nonzero;fill:rgb(100%,100%,100%);fill-opacity:1;" d="M 75.890625 92.074219 C 75.597656 92.371094 75.011719 92.265625 74.589844 91.84375 C 74.164062 91.417969 74.058594 90.835938 74.355469 90.539062 C 74.652344 90.242188 75.234375 90.347656 75.660156 90.773438 C 76.082031 91.195312 76.1875 91.78125 75.890625 92.074219 Z M 75.890625 92.074219 "/>
</g>
<mask id="mask2">
  <g filter="url(#alpha)">
<rect x="0" y="0" width="210" height="210" style="fill:rgb(0%,0%,0%);fill-opacity:0.901961;stroke:none;"/>
  </g>
</mask>
<clipPath id="clip3">
  <rect width="210" height="210"/>
</clipPath>
<g id="surface12" clip-path="url(#clip3)">
<path style=" stroke:none;fill-rule:nonzero;fill:rgb(100%,100%,100%);fill-opacity:1;" d="M 82.289062 87.171875 C 81.847656 87.617188 80.777344 87.261719 79.894531 86.382812 C 79.015625 85.503906 78.664062 84.429688 79.105469 83.988281 C 79.546875 83.546875 80.621094 83.898438 81.5 84.777344 C 82.378906 85.65625 82.734375 86.730469 82.289062 87.171875 Z M 82.289062 87.171875 "/>
</g>
<radialGradient id="radial1" gradientUnits="userSpaceOnUse" cx="123.371" cy="81.442" fx="136.805" fy="80.36" r="17.038" gradientTransform="matrix(0.934038,0.129181,0.126252,-0.694953,-45.149851,127.256082)">
<stop offset="0" style="stop-color:rgb(94.117647%,71.764706%,41.176471%);stop-opacity:1;"/>
<stop offset="0.7" style="stop-color:rgb(94.117647%,71.764706%,41.176471%);stop-opacity:0.301961;"/>
<stop offset="1" style="stop-color:rgb(100%,80.392157%,53.72549%);stop-opacity:0;"/>
</radialGradient>
<radialGradient id="radial2" gradientUnits="userSpaceOnUse" cx="78.965" cy="81.143" fx="78.965" fy="81.143" r="26.237" gradientTransform="matrix(0.678793,-0.0567,0.0758835,0.580513,16.142072,55.397834)">
<stop offset="0.95" style="stop-color:rgb(0%,0%,0%);stop-opacity:0;"/>
<stop offset="1" style="stop-color:rgb(0%,0%,0%);stop-opacity:0.2;"/>
</radialGradient>
<radialGradient id="radial3" gradientUnits="userSpaceOnUse" cx="125.541" cy="85.113" fx="125.541" fy="85.113" r="13.249" gradientTransform="matrix(1.039122,0.0399735,-0.0600075,0.870061,6.922991,9.408174)">
<stop offset="0" style="stop-color:rgb(100%,100%,100%);stop-opacity:1;"/>
<stop offset="0.544" style="stop-color:rgb(99.215686%,99.607843%,99.607843%);stop-opacity:1;"/>
<stop offset="0.74" style="stop-color:rgb(96.470588%,97.254902%,97.647059%);stop-opacity:1;"/>
<stop offset="0.879" style="stop-color:rgb(91.764706%,93.72549%,94.901961%);stop-opacity:1;"/>
<stop offset="0.992" style="stop-color:rgb(85.098039%,89.019608%,90.980392%);stop-opacity:1;"/>
<stop offset="1" style="stop-color:rgb(84.705882%,88.627451%,90.588235%);stop-opacity:1;"/>
</radialGradient>
<mask id="mask3">
  <g filter="url(#alpha)">
<rect x="0" y="0" width="210" height="210" style="fill:rgb(0%,0%,0%);fill-opacity:0.301961;stroke:none;"/>
  </g>
</mask>
<clipPath id="clip4">
  <rect width="210" height="210"/>
</clipPath>
<g id="surface15" clip-path="url(#clip4)">
<path style=" stroke:none;fill-rule:nonzero;fill:rgb(0%,0%,0%);fill-opacity:1;" d="M 131.945312 82.554688 C 135.074219 82.554688 137.617188 85.09375 137.617188 88.226562 C 137.617188 91.359375 135.074219 93.898438 131.945312 93.898438 C 128.816406 93.898438 126.273438 91.359375 126.273438 88.226562 C 126.273438 85.09375 128.816406 82.554688 131.945312 82.554688 Z M 131.945312 82.554688 "/>
</g>
<mask id="mask4">
  <g filter="url(#alpha)">
<rect x="0" y="0" width="210" height="210" style="fill:rgb(0%,0%,0%);fill-opacity:0.6;stroke:none;"/>
  </g>
</mask>
<clipPath id="clip5">
  <rect width="210" height="210"/>
</clipPath>
<g id="surface18" clip-path="url(#clip5)">
<path style=" stroke:none;fill-rule:nonzero;fill:rgb(100%,100%,100%);fill-opacity:1;" d="M 129.835938 92.074219 C 129.542969 92.371094 128.957031 92.265625 128.535156 91.84375 C 128.109375 91.417969 128.003906 90.835938 128.300781 90.539062 C 128.597656 90.242188 129.179688 90.347656 129.605469 90.773438 C 130.027344 91.195312 130.132812 91.78125 129.835938 92.074219 Z M 129.835938 92.074219 "/>
</g>
<mask id="mask5">
  <g filter="url(#alpha)">
<rect x="0" y="0" width="210" height="210" style="fill:rgb(0%,0%,0%);fill-opacity:0.901961;stroke:none;"/>
  </g>
</mask>
<clipPath id="clip6">
  <rect width="210" height="210"/>
</clipPath>
<g id="surface21" clip-path="url(#clip6)">
<path style=" stroke:none;fill-rule:nonzero;fill:rgb(100%,100%,100%);fill-opacity:1;" d="M 136.234375 87.171875 C 135.792969 87.617188 134.71875 87.261719 133.839844 86.382812 C 132.960938 85.503906 132.609375 84.433594 133.050781 83.988281 C 133.492188 83.546875 134.566406 83.898438 135.445312 84.777344 C 136.324219 85.65625 136.679688 86.730469 136.234375 87.171875 Z M 136.234375 87.171875 "/>
</g>
<radialGradient id="radial4" gradientUnits="userSpaceOnUse" cx="122.972" cy="81.425" fx="136.406" fy="80.344" r="17.037" gradientTransform="matrix(-0.934038,0.129181,-0.126252,-0.694953,254.342616,127.296128)">
<stop offset="0" style="stop-color:rgb(94.117647%,71.764706%,41.176471%);stop-opacity:1;"/>
<stop offset="0.7" style="stop-color:rgb(94.117647%,71.764706%,41.176471%);stop-opacity:0.301961;"/>
<stop offset="1" style="stop-color:rgb(100%,80.392157%,53.72549%);stop-opacity:0;"/>
</radialGradient>
<radialGradient id="radial5" gradientUnits="userSpaceOnUse" cx="79.515" cy="81.186" fx="79.515" fy="81.186" r="26.237" gradientTransform="matrix(-0.678793,-0.0567,-0.0758835,0.580513,193.802724,55.404427)">
<stop offset="0.95" style="stop-color:rgb(0%,0%,0%);stop-opacity:0;"/>
<stop offset="1" style="stop-color:rgb(0%,0%,0%);stop-opacity:0.2;"/>
</radialGradient>
<radialGradient id="radial6" gradientUnits="userSpaceOnUse" cx="100" cy="114" fx="100" fy="114" r="41" gradientTransform="matrix(1.05,0,0,1.05,0.000000105,0)">
<stop offset="0" style="stop-color:rgb(100%,84.705882%,63.921569%);stop-opacity:0.501961;"/>
<stop offset="0.9" style="stop-color:rgb(100%,80.392157%,53.72549%);stop-opacity:0;"/>
</radialGradient>
<radialGradient id="radial7" gradientUnits="userSpaceOnUse" cx="100" cy="54" fx="100" fy="54" r="37" gradientTransform="matrix(1.05,0,0,1.05,0.000000105,0)">
<stop offset="0" style="stop-color:rgb(100%,84.705882%,63.921569%);stop-opacity:0.501961;"/>
<stop offset="0.9" style="stop-color:rgb(100%,80.392157%,53.72549%);stop-opacity:0;"/>
</radialGradient>
</defs>
<g id="surface1">
<rect x="0" y="0" width="210" height="210" style="fill:rgb(92.54902%,94.117647%,94.509804%);fill-opacity:1;stroke:none;"/>
<path style=" stroke:none;fill-rule:nonzero;fill:rgb(77.647059%,86.27451%,88.627451%);fill-opacity:1;" d="M 108.148438 -39.128906 L 104.085938 75.597656 L 101.363281 -39.476562 Z M 76.863281 -38.078125 L 95.578125 75.5 L 83.632812 -38.675781 Z M 70.210938 -17.429688 L 96.019531 76.988281 L 72.3125 -18.828125 Z M 27.511719 -31.425781 L 92.207031 78.511719 L 33.855469 -33.871094 Z M 24.722656 -17.277344 L 88.015625 78.871094 L 26.8125 -21.277344 Z M -12.457031 -30.195312 L 47.601562 34.414062 L -7.035156 -34.289062 Z M -16.238281 -0.277344 L 82.539062 86.003906 L -11.6875 -6.578125 Z M -31.636719 2.171875 L 58.3125 70.074219 L -31.050781 -0.808594 Z M -26.449219 44.933594 L 78.175781 92.929688 L -23.160156 38.988281 Z M -46.335938 45.570312 L 59.363281 89.324219 L -47.035156 41.722656 Z M -57.515625 79.292969 L 56.289062 96.59375 L -58.792969 76.171875 Z M -46.308594 102.445312 L 68.792969 103.738281 L -45.722656 95.675781 Z M -61.039062 54.671875 L 32.414062 83.371094 L -61.738281 50.820312 Z M 83.632812 248.675781 L 95.578125 134.5 L 76.863281 248.074219 Z M 72.3125 228.824219 L 96.019531 133.007812 L 70.210938 227.425781 Z M 32.367188 252.308594 L 82.359375 156.347656 L 26.023438 249.863281 Z M 26.8125 231.277344 L 88.015625 131.128906 L 24.722656 227.273438 Z M -11.773438 251.542969 L 58.859375 161.042969 L -17.195312 247.445312 Z M -11.6875 216.574219 L 82.539062 123.992188 L -16.238281 210.277344 Z M -31.050781 210.808594 L 58.3125 139.925781 L -31.636719 207.824219 Z M -23.160156 171.011719 L 78.171875 117.066406 L -26.449219 165.0625 Z M -47.035156 168.277344 L 59.363281 120.675781 L -46.335938 164.425781 Z M -58.792969 133.828125 L 56.289062 113.40625 L -57.515625 130.703125 Z M -61.738281 159.175781 L 32.414062 126.625 L -61.035156 155.324219 Z M 126.460938 -45.8125 L 112.257812 68.105469 L 127.585938 -25.847656 Z M 148.902344 -33.464844 L 118.984375 77.371094 L 155.492188 -31.796875 Z M 156.929688 -12.070312 L 118.3125 78.769531 L 158.78125 -10.351562 Z M 197.285156 -20.816406 L 121.835938 80.878906 L 203.160156 -17.398438 Z M 202.242188 -7.265625 L 125.917969 81.898438 L 203.667969 -2.980469 Z M 237.804688 -20.433594 L 172.875 44.421875 L 242.507812 -15.527344 Z M 237.917969 13.359375 L 130.191406 89.8125 L 241.410156 20.300781 Z M 256.121094 22.128906 L 156.640625 77.925781 L 256.226562 25.164062 Z M 242.011719 60.167969 L 133.402344 97.34375 L 244.316406 66.5625 Z M 265.152344 66.65625 L 152.546875 96.765625 L 263.851562 70.347656 Z M 268.59375 101.195312 L 153.492188 100.210938 L 271.289062 102.535156 Z M 251.253906 115.269531 L 136.910156 105.050781 L 250.757812 122.046875 Z M 253.363281 132.386719 L 182.46875 122.847656 L 252.0625 136.078125 Z M 110.066406 250.726562 L 109.621094 135.621094 L 103.289062 250.246094 Z M 119.910156 231.394531 L 109.421875 134.078125 L 117.617188 232.445312 Z M 170.742188 249.492188 L 113.425781 133.179688 L 164.089844 250.898438 Z M 176.371094 235.890625 L 117.625 133.492188 L 173.671875 239.507812 Z M 207.988281 228.1875 L 124.160156 127.316406 L 202.496094 233.683594 Z M 223.582031 228.210938 L 145.550781 146.894531 L 222.53125 231.0625 Z M 225.246094 185.167969 L 129.570312 121.171875 L 221.054688 190.519531 Z M 244.984375 187.695312 L 147.570312 127.722656 L 245.066406 191.609375 Z M 261.371094 156.175781 L 151.757812 121.03125 L 262.140625 159.460938 Z M 260.945312 181.042969 L 173.234375 137.875 L 261.023438 184.957031 Z M 260.945312 181.042969 "/>
<path style=" stroke:none;fill-rule:nonzero;fill:rgb(12.54902%,12.54902%,9.803922%);fill-opacity:1;" d="M 105.523438 105.523438 L 104.476562 105.523438 L 104.476562 104.476562 L 105.523438 104.476562 Z M 105.523438 105.523438 "/>
<path style=" stroke:none;fill-rule:nonzero;fill:rgb(100%,80.392157%,53.72549%);fill-opacity:1;" d="M 205.1875 209.765625 C 202.882812 204.785156 196.582031 197.398438 189.585938 195.359375 C 180.933594 192.835938 161.40625 189.785156 154.164062 188.089844 C 148.359375 186.730469 136.671875 176.230469 132.574219 172.707031 C 131.839844 172.078125 131.238281 170.777344 131.222656 169.808594 C 131.074219 158.402344 135.625 128.097656 135.625 128.097656 L 74.375 128.097656 C 74.375 128.097656 78.925781 158.402344 78.777344 169.808594 C 78.765625 170.777344 78.160156 172.078125 77.429688 172.707031 C 73.332031 176.230469 61.640625 186.730469 55.835938 188.089844 C 48.59375 189.785156 29.066406 192.941406 20.417969 195.460938 C 13.414062 197.5 7.117188 204.78125 4.8125 209.765625 C 0.917969 218.175781 0 233.390625 0 246.515625 L 210 246.515625 C 210 233.390625 209.078125 218.175781 205.1875 209.765625 Z M 205.1875 209.765625 "/>
<path style=" stroke:none;fill-rule:nonzero;fill:rgb(100%,84.705882%,63.921569%);fill-opacity:1;" d="M 167.113281 193.261719 C 192.671875 196.980469 203.429688 202.40625 206.796875 246.519531 L 210 246.519531 C 210 233.394531 209.078125 218.175781 205.1875 209.769531 C 202.882812 204.785156 196.582031 197.398438 189.585938 195.359375 C 180.933594 192.835938 161.40625 189.785156 154.164062 188.089844 C 148.359375 186.730469 135.011719 175.417969 131.441406 170.921875 C 134.96875 175.863281 144.871094 187.308594 153.546875 190.304688 C 157.699219 191.742188 161.152344 192.394531 167.113281 193.261719 Z M 56.453125 190.304688 C 65.128906 187.308594 75.03125 175.863281 78.5625 170.921875 C 74.992188 175.417969 61.640625 186.730469 55.835938 188.089844 C 48.59375 189.785156 29.066406 192.941406 20.417969 195.464844 C 13.417969 197.503906 7.117188 204.785156 4.8125 209.765625 C 0.921875 218.175781 0 233.390625 0 246.515625 L 3.203125 246.515625 C 6.550781 202.6875 17.351562 196.976562 42.886719 193.261719 C 48.847656 192.394531 52.304688 191.742188 56.453125 190.304688 Z M 56.453125 190.304688 "/>
<path style=" stroke:none;fill-rule:nonzero;fill:rgb(94.117647%,71.764706%,41.176471%);fill-opacity:1;" d="M 100.429688 207.5 C 100.429688 207.5 95.101562 205.8125 92.992188 205.003906 C 82.019531 200.792969 46.375 198.066406 46.375 198.066406 C 46.375 198.066406 83.917969 199.554688 92.203125 200.984375 C 91.722656 195.976562 89.035156 179.980469 89.035156 179.980469 C 89.035156 179.980469 94.441406 197.636719 95.765625 202.089844 C 96.472656 204.46875 100.429688 207.5 100.429688 207.5 Z M 111.765625 206.09375 C 111.671875 206.167969 111.566406 206.269531 111.449219 206.375 C 111.570312 206.285156 111.675781 206.191406 111.765625 206.09375 Z M 100.429688 207.5 C 100.429688 207.5 103.464844 210.644531 104.992188 210.683594 C 107 210.734375 110.0625 207.636719 111.453125 206.375 C 110.121094 207.378906 107.085938 207.832031 105.875 207.882812 C 104.480469 207.933594 100.429688 207.5 100.429688 207.5 Z M 122.496094 199.605469 C 120.875 199.867188 117.890625 200.433594 117.890625 200.433594 L 120.292969 184.800781 C 119.613281 188.023438 115.59375 201.820312 111.765625 206.09375 C 113.773438 204.394531 118.234375 203.582031 120.507812 203.253906 C 131.253906 201.695312 131.25 201.695312 163.621094 198.066406 C 163.621094 198.066406 133.097656 197.902344 122.496094 199.605469 Z M 122.496094 199.605469 "/>
<path style="fill:none;stroke-width:1.5;stroke-linecap:butt;stroke-linejoin:miter;stroke:rgb(81.960784%,55.686275%,19.607843%);stroke-opacity:1;stroke-miterlimit:4;" d="M 195.416667 199.776786 C 193.221726 195.033482 187.220982 187.998512 180.558036 186.056548 C 172.317708 183.653274 153.720238 180.747768 146.822917 179.133185 C 141.294643 177.838542 130.16369 167.838542 126.261161 164.482887 C 125.561756 163.883929 124.988839 162.645089 124.973958 161.72247 C 124.832589 150.859375 129.166667 121.997768 129.166667 121.997768 L 70.833333 121.997768 C 70.833333 121.997768 75.167411 150.859375 75.026042 161.72247 C 75.014881 162.645089 74.438244 163.883929 73.742559 164.482887 C 69.84003 167.838542 58.705357 177.838542 53.177083 179.133185 C 46.279762 180.747768 27.682292 183.75372 19.445684 186.153274 C 12.775298 188.095238 6.778274 195.029762 4.583333 199.776786 C 0.874256 207.786458 -0.0000001 222.276786 -0.0000001 234.776786 L 200 234.776786 C 200 222.276786 199.122024 207.786458 195.416667 199.776786 Z M 195.416667 199.776786 " transform="matrix(1.05,0,0,1.05,0.000000105,0)"/>
<path style=" stroke:none;fill-rule:nonzero;fill:url(#linear0);" d="M 79.238281 171.347656 C 84.777344 175.816406 90.488281 180.460938 105.003906 180.460938 C 119.507812 180.460938 125.222656 175.820312 130.757812 171.355469 C 130.5625 170.839844 130.4375 170.308594 130.433594 169.820312 C 130.339844 162.585938 132.082031 148.074219 133.410156 138.183594 C 116.929688 135.871094 93.070312 135.871094 76.589844 138.183594 C 77.914062 148.074219 79.660156 162.585938 79.566406 169.820312 C 79.558594 170.296875 79.4375 170.828125 79.238281 171.347656 Z M 79.238281 171.347656 "/>
<path style=" stroke:none;fill-rule:nonzero;fill:rgb(22.352941%,33.333333%,49.411765%);fill-opacity:1;" d="M 215.007812 246.417969 C 188.683594 246.15625 147.554688 246.40625 114.148438 246.53125 L 118.101562 210.589844 C 118.511719 201.269531 122.625 198.835938 124.835938 193.214844 C 133.785156 170.460938 130.214844 177.21875 133.21875 158.425781 C 143.394531 159.824219 151.324219 180.492188 158.773438 183.21875 C 158.761719 183.667969 158.425781 185.742188 157.980469 188.363281 C 196.476562 196.335938 210 187.671875 215.007812 246.417969 Z M 98.148438 210.742188 C 97.035156 207.449219 92.394531 202.609375 90.21875 199.453125 C 86.476562 194.011719 83.363281 188.222656 78.796875 174.679688 C 78.789062 174.523438 78.058594 162.699219 76.855469 157.664062 C 70.800781 160.511719 71.890625 165.164062 62.574219 176.058594 C 60.625 178.328125 56.753906 179.027344 52.855469 181.3125 C 52.652344 183.511719 52.621094 185.429688 52.695312 187.242188 C 42.933594 188.71875 15.554688 194.625 5.59375 202.304688 C 0.972656 212.972656 -9.636719 232.757812 -7.949219 247.371094 C 21.695312 247.050781 66.804688 246.746094 104.800781 246.53125 C 104.800781 246.53125 106.167969 225.628906 97.597656 210.507812 C 97.789062 210.578125 97.976562 210.65625 98.148438 210.742188 Z M 98.148438 210.742188 "/>
<path style=" stroke:none;fill-rule:nonzero;fill:rgb(30.588235%,40.784314%,55.294118%);fill-opacity:1;" d="M 53.304688 188.402344 C 32.402344 194.378906 18.792969 198.730469 9.175781 204.25 C 4.792969 212.433594 -2.449219 224.027344 -6.414062 246.53125 C -6.46875 246.53125 -7.429688 246.433594 -7.484375 246.433594 C -7.386719 228.507812 0.699219 214.089844 5.570312 202.496094 C 16.285156 193.828125 39.472656 189.539062 52.816406 187.398438 C 52.855469 187.46875 53.265625 188.335938 53.304688 188.402344 Z M 158.023438 188.546875 C 171.371094 190.6875 191.09375 192.921875 202.25 200.007812 C 209.992188 211.691406 214.25 228.1875 214.347656 246.113281 C 214.292969 246.113281 213.332031 246.210938 213.273438 246.210938 C 209.3125 223.707031 204.535156 211.34375 200.148438 203.160156 C 190.53125 197.640625 178.4375 195.53125 157.535156 189.554688 C 157.574219 189.484375 157.984375 188.621094 158.023438 188.546875 Z M 158.023438 188.546875 "/>
<path style=" stroke:none;fill-rule:nonzero;fill:rgb(9.411765%,20.784314%,37.254902%);fill-opacity:1;" d="M 125.617188 211.21875 C 123.8125 210.191406 120.378906 210 118.265625 211.84375 C 118.890625 210 121.195312 208.480469 124.222656 208.144531 C 133.691406 210 145.125 222.703125 156.464844 227.460938 C 145.222656 225.539062 134.207031 216.09375 125.617188 211.21875 Z M 98.351562 212.273438 L 97.101562 210 C 94.941406 210.039062 89.800781 210.507812 87.636719 212.425781 C 77.882812 221.070312 62.3125 225.394531 55.382812 229.914062 C 91.039062 220.398438 84.214844 212.871094 98.351562 212.273438 Z M 98.351562 212.273438 "/>
<path style=" stroke:none;fill-rule:nonzero;fill:rgb(15.294118%,26.666667%,43.529412%);fill-opacity:1;" d="M 121.398438 208.933594 C 119.832031 209.382812 118.1875 210.566406 118.101562 210.585938 C 118.507812 201.265625 122.625 198.835938 124.832031 193.214844 C 133.78125 170.460938 130.214844 177.214844 133.21875 158.421875 C 135.257812 158.703125 137.207031 159.910156 139.078125 161.664062 C 137.792969 171.636719 135.046875 179.511719 131.050781 188.507812 C 135.734375 185.859375 140.8125 182.617188 145.40625 180.082031 C 135.859375 188.675781 124.441406 196.433594 121.398438 208.933594 Z M 98.148438 210.742188 C 97.035156 207.449219 92.394531 202.609375 90.21875 199.453125 C 86.476562 194.011719 83.363281 188.222656 78.796875 174.679688 C 78.789062 174.523438 78.058594 162.699219 76.855469 157.664062 C 73.027344 159.464844 73.347656 160.765625 70.796875 165.128906 C 72.851562 175.761719 77.007812 182.523438 82.898438 191.363281 C 77.875 188.050781 70.863281 182.390625 63.925781 178.925781 C 75.613281 187.691406 86.121094 198.601562 94.007812 210.21875 C 96.570312 209.4375 96.667969 210.003906 98.148438 210.742188 Z M 98.148438 210.742188 "/>
<path style=" stroke:none;fill-rule:nonzero;fill:rgb(4.705882%,15.686275%,31.372549%);fill-opacity:1;" d="M 203.085938 198.960938 C 194.105469 193.648438 178.566406 190.078125 158.417969 187.644531 C 158.691406 185.039062 158.890625 183.171875 158.894531 183.140625 C 151.429688 180.558594 143.136719 159.546875 132.777344 158.300781 C 125.109375 205.429688 120.46875 189.332031 116.644531 210 C 115.949219 213.757812 113.648438 244.15625 113.53125 245.613281 C 110.828125 245.617188 108.125 245.621094 105.421875 245.625 C 105.996094 226.765625 98.785156 211.9375 98.34375 210.980469 C 97.421875 207.707031 92.515625 202.585938 90.316406 199.390625 C 84.605469 191.089844 82.007812 183.546875 78.910156 174.671875 C 78.910156 174.671875 78.402344 162.457031 77.164062 157.5 C 70.925781 160.363281 71.855469 163.867188 62.488281 174.824219 C 59.835938 177.90625 56.242188 179.203125 52.734375 181.300781 C 52.554688 183.296875 52.527344 185.191406 52.59375 187.027344 C 16.605469 191.59375 8.765625 199.582031 4.410156 201.5 C 1.324219 211.496094 -8.539062 226 -8.632812 247.53125 C 22.480469 247.53125 27.136719 247.953125 121.023438 247.617188 C 135.585938 247.554688 150.144531 247.476562 164.710938 247.382812 C 186.210938 247.257812 215.8125 247.875 215.8125 247.875 C 215.8125 225.476562 210.914062 211.996094 203.085938 198.960938 Z M 123.515625 196.265625 C 130.851562 181.898438 130.851562 178.484375 133.679688 158.863281 C 142.554688 161.824219 150.679688 180.863281 157.957031 183.210938 C 152.769531 210 155.578125 220.355469 155.949219 226.632812 C 153.246094 225.175781 151.164062 223.847656 148.535156 222.277344 C 140.429688 217.414062 134.816406 211.523438 126.214844 208.011719 C 123.886719 207.03125 120.535156 208.496094 118.488281 210.003906 C 119.617188 200.113281 120.761719 201.660156 123.515625 196.265625 Z M 125.25 208.65625 C 125.253906 208.640625 125.253906 208.628906 125.257812 208.613281 C 125.542969 208.570312 125.378906 208.609375 125.25 208.65625 Z M 118.394531 212.910156 C 118.800781 210.835938 121.9375 209.640625 123.5 209.109375 C 121.476562 218.09375 118.832031 230.195312 118.78125 245.609375 C 117.46875 245.609375 116.15625 245.613281 114.84375 245.613281 C 114.957031 244.261719 116.730469 221.378906 118.394531 212.910156 Z M 103.878906 245.628906 C 103.046875 245.628906 102.21875 245.628906 101.390625 245.632812 C 102.558594 232.191406 95.503906 220.632812 92.261719 210.941406 C 93.109375 210.855469 95.632812 210.167969 96.332031 210.289062 C 98.054688 211.589844 106.050781 232.96875 103.878906 245.628906 Z M 63.03125 175.820312 C 73.054688 164.292969 70.964844 161.472656 76.515625 158.078125 C 76.863281 161.386719 77.140625 164.71875 77.316406 168.0625 C 77.90625 179.886719 76.328125 171.808594 80.980469 183.996094 C 87.820312 201.90625 93.933594 203.441406 97.066406 209.582031 C 85.960938 208.804688 84.34375 217.132812 74.355469 220.464844 C 65.160156 224.082031 67.683594 222.398438 55.0625 229.636719 C 58.589844 204.625 53.234375 193.058594 53.234375 181.785156 C 56.867188 179.90625 60.355469 178.886719 63.03125 175.820312 Z M -7.136719 246.296875 C -5.386719 224.597656 3.050781 210.574219 6.511719 202.898438 C 11.390625 199.761719 27.539062 191.425781 52.628906 187.785156 C 52.984375 194.710938 54.652344 200.773438 54.785156 207.660156 C 55.035156 214.25 55.007812 222.445312 54.519531 230.480469 C 59.191406 228.335938 63.679688 225.777344 68.882812 223.910156 C 83.378906 218.652344 80.890625 217.492188 87.828125 212.699219 C 89.492188 211.542969 89.242188 211.527344 90.6875 211.164062 C 93.378906 219.550781 101.882812 231.007812 99.933594 245.632812 C 62.925781 245.707031 26.089844 245.9375 -7.136719 246.296875 Z M 120.339844 245.609375 C 120.007812 232.53125 123.117188 221.453125 125.238281 208.730469 C 130.335938 208.796875 144.472656 222.820312 156.890625 228.078125 C 157.175781 223.660156 156.707031 214.457031 156.707031 204.210938 C 156.703125 203.90625 157.664062 194.765625 158.3125 188.625 C 170.152344 192.027344 189.359375 192.058594 202.246094 201.207031 C 207.414062 211.121094 213.636719 222.257812 214.0625 245.949219 C 184.714844 245.703125 152.703125 245.59375 120.339844 245.609375 Z M 120.339844 245.609375 "/>
<path style="fill-rule:nonzero;fill:rgb(100%,80.392157%,53.72549%);fill-opacity:1;stroke-width:1.5;stroke-linecap:butt;stroke-linejoin:miter;stroke:rgb(81.960784%,55.686275%,19.607843%);stroke-opacity:1;stroke-miterlimit:4;" d="M 45.671679 84.344919 C 44.1875 81.881729 39.343358 75.146139 35.638783 76.089905 C 32.627348 76.861365 32.666509 81.059361 32.435462 83.546046 C 32.094767 87.187964 31.969453 93.535866 32.960212 96.11262 C 33.91181 98.587558 36.919329 103.365127 38.78728 105.186086 C 41.085996 107.422145 44.755326 114.545423 45.209586 115.285555 C 45.91839 116.452535 47.347745 118.124684 49.532895 117.991539 C 52.603071 117.807485 55.258146 114.905699 55.500941 113.507672 C 56.801066 105.918386 49.536811 90.751561 45.671679 84.344919 Z M 45.671679 84.344919 " transform="matrix(0.9975,0,0,0.9975,2.305786,5.092515)"/>
<path style=" stroke:none;fill-rule:nonzero;fill:rgb(81.960784%,55.686275%,19.607843%);fill-opacity:1;" d="M 46.394531 104.183594 C 46.253906 103.625 46.402344 102.675781 46.550781 101.761719 C 46.679688 100.929688 46.804688 100.140625 46.730469 99.585938 C 46.441406 97.5 44.820312 93.539062 43.761719 91.394531 C 42.542969 88.925781 40.570312 85.8125 38.097656 85.011719 C 37.074219 84.679688 36.402344 85.074219 36.011719 85.476562 C 35.726562 85.773438 35.660156 86.121094 35.753906 86.164062 C 35.851562 86.203125 36.0625 85.914062 36.371094 85.644531 C 36.625 85.425781 35.863281 85.605469 36.371094 85.644531 C 36.164062 86.683594 35.507812 91.933594 35.960938 95.761719 C 36.320312 98.777344 37.007812 101.027344 37.222656 101.367188 C 37.253906 101.722656 37.304688 102.070312 37.382812 102.40625 C 38.378906 106.804688 44.878906 112.558594 46.390625 114.195312 C 46.671875 114.5 46.964844 114.679688 47.035156 114.605469 C 47.109375 114.53125 46.9375 114.234375 46.660156 113.929688 C 45.164062 112.300781 38.707031 106.566406 37.742188 102.324219 C 36.71875 97.820312 41.644531 91.144531 42.429688 89.730469 C 42.828125 90.394531 43.167969 91.03125 43.429688 91.5625 C 43.636719 91.976562 43.863281 92.464844 44.097656 92.992188 C 43.636719 93.730469 38.992188 99.105469 40.175781 103.40625 C 40.613281 104.996094 43.988281 107.039062 45.292969 107.601562 C 46.011719 107.910156 46.28125 108.371094 46.59375 108.902344 C 46.957031 109.527344 46.625 111.125 47.820312 111.636719 C 48.0625 111.738281 48.285156 111.78125 48.476562 111.78125 C 48.816406 111.78125 49.070312 111.652344 49.257812 111.496094 C 49.277344 111.769531 49.277344 112.117188 49.269531 112.4375 C 49.257812 112.851562 49.316406 113.042969 49.414062 113.050781 C 49.519531 113.0625 49.625 112.878906 49.636719 112.464844 C 49.65625 111.957031 49.652344 111.328125 49.5625 111.027344 C 49.292969 110.140625 48.476562 109.136719 47.609375 108.078125 C 46.757812 107.035156 46.617188 105.054688 46.394531 104.183594 Z M 37.1875 100.285156 C 34.84375 93.378906 38.46875 87.089844 38.992188 86.140625 C 40.003906 86.539062 41.546875 88.328125 42.207031 89.371094 C 41.726562 90.199219 37.285156 95.640625 37.1875 100.285156 Z M 47.964844 111.289062 C 46.882812 110.828125 47.257812 109.3125 46.910156 108.710938 C 46.59375 108.171875 46.265625 107.613281 45.433594 107.257812 C 45.253906 107.179688 45.054688 107.0625 44.851562 106.925781 C 42.179688 100.867188 45.144531 98.21875 45.890625 97.675781 C 46.117188 98.414062 46.289062 99.09375 46.363281 99.640625 C 46.433594 100.140625 46.304688 100.933594 46.183594 101.703125 C 46.03125 102.65625 45.875 103.640625 46.039062 104.28125 C 46.28125 105.230469 46.445312 107.242188 47.324219 108.320312 C 48.105469 109.273438 48.902344 110.257812 49.175781 111.058594 C 49.058594 111.21875 48.691406 111.601562 47.964844 111.289062 Z M 47.964844 111.289062 "/>
<path style="fill-rule:nonzero;fill:rgb(100%,80.392157%,53.72549%);fill-opacity:1;stroke-width:1.5;stroke-linecap:butt;stroke-linejoin:miter;stroke:rgb(81.960784%,55.686275%,19.607843%);stroke-opacity:1;stroke-miterlimit:4;" d="M 154.064099 84.344919 C 155.552195 81.881729 160.392421 75.146139 164.096995 76.089905 C 167.10843 76.861365 167.06927 81.059361 167.304232 83.546046 C 167.644928 87.187964 167.766325 93.535866 166.779483 96.11262 C 165.827885 98.587558 162.81645 103.365127 160.952414 105.186086 C 158.653699 107.422145 154.980453 114.545423 154.530108 115.285555 C 153.817389 116.452535 152.39195 118.124684 150.202883 117.991539 C 147.132707 117.807485 144.481548 114.905699 144.238753 113.507672 C 142.938628 105.918386 150.202883 90.751561 154.064099 84.344919 Z M 154.064099 84.344919 " transform="matrix(0.9975,0,0,0.9975,8.180452,5.092515)"/>
<path style=" stroke:none;fill-rule:nonzero;fill:rgb(81.960784%,55.686275%,19.607843%);fill-opacity:1;" d="M 162.117188 108.078125 C 161.25 109.136719 160.433594 110.140625 160.164062 111.027344 C 160.074219 111.332031 160.070312 111.960938 160.085938 112.46875 C 160.101562 112.878906 160.207031 113.0625 160.3125 113.054688 C 160.414062 113.046875 160.472656 112.855469 160.457031 112.4375 C 160.449219 112.117188 160.445312 111.769531 160.464844 111.5 C 160.65625 111.652344 160.910156 111.78125 161.246094 111.78125 C 161.441406 111.78125 161.664062 111.738281 161.90625 111.636719 C 163.097656 111.125 162.769531 109.527344 163.132812 108.90625 C 163.445312 108.371094 163.714844 107.910156 164.433594 107.601562 C 165.738281 107.042969 169.113281 104.996094 169.550781 103.410156 C 170.734375 99.105469 166.089844 93.730469 165.628906 92.996094 C 165.859375 92.464844 166.089844 91.980469 166.292969 91.5625 C 166.558594 91.03125 166.898438 90.394531 167.296875 89.730469 C 168.082031 91.144531 173.007812 97.820312 171.984375 102.324219 C 171.019531 106.566406 164.5625 112.300781 163.066406 113.929688 C 162.789062 114.234375 162.617188 114.53125 162.6875 114.605469 C 162.761719 114.679688 163.054688 114.5 163.332031 114.199219 C 164.84375 112.558594 171.34375 106.804688 172.34375 102.40625 C 172.421875 102.070312 172.472656 101.722656 172.503906 101.367188 C 172.714844 101.03125 173.40625 98.78125 173.761719 95.765625 C 174.21875 91.933594 173.558594 86.683594 173.355469 85.648438 C 173.859375 85.605469 173.101562 85.425781 173.355469 85.648438 C 173.664062 85.917969 173.875 86.207031 173.96875 86.164062 C 174.0625 86.121094 174 85.773438 173.710938 85.480469 C 173.324219 85.078125 172.648438 84.679688 171.628906 85.011719 C 169.152344 85.8125 167.183594 88.925781 165.960938 91.394531 C 164.902344 93.542969 163.28125 97.5 162.996094 99.585938 C 162.917969 100.144531 163.042969 100.929688 163.175781 101.761719 C 163.320312 102.675781 163.472656 103.625 163.328125 104.1875 C 163.109375 105.054688 162.96875 107.035156 162.117188 108.078125 Z M 167.519531 89.371094 C 168.175781 88.328125 169.722656 86.542969 170.730469 86.140625 C 171.257812 87.089844 174.878906 93.378906 172.539062 100.285156 C 172.441406 95.640625 168 90.199219 167.519531 89.371094 Z M 160.546875 111.054688 C 160.820312 110.253906 161.621094 109.269531 162.402344 108.316406 C 163.277344 107.242188 163.445312 105.230469 163.6875 104.277344 C 163.851562 103.640625 163.695312 102.652344 163.542969 101.703125 C 163.421875 100.933594 163.292969 100.136719 163.363281 99.636719 C 163.4375 99.09375 163.605469 98.414062 163.835938 97.671875 C 164.578125 98.214844 167.546875 100.863281 164.871094 106.921875 C 164.667969 107.058594 164.472656 107.175781 164.289062 107.253906 C 163.460938 107.613281 163.132812 108.171875 162.8125 108.710938 C 162.464844 109.308594 162.84375 110.828125 161.761719 111.289062 C 161.035156 111.601562 160.664062 111.21875 160.546875 111.054688 Z M 160.546875 111.054688 "/>
<path style=" stroke:none;fill-rule:nonzero;fill:rgb(100%,80.392157%,53.72549%);fill-opacity:1;" d="M 105.003906 0.910156 C 69.703125 0.964844 41.035156 29.960938 41.089844 65.6875 C 41.097656 71.359375 41.828125 76.863281 43.191406 82.105469 L 43.195312 82.105469 C 43.207031 82.160156 55.3125 122.625 57.914062 135.917969 C 59.367188 143.328125 67.429688 152.355469 75.273438 157.808594 C 82.585938 162.894531 87.097656 169.960938 105 169.960938 C 122.902344 169.960938 127.414062 162.894531 134.730469 157.808594 C 142.570312 152.355469 150.636719 143.328125 152.085938 135.917969 C 154.691406 122.625 166.796875 82.160156 166.808594 82.105469 C 168.171875 76.863281 168.902344 71.359375 168.914062 65.6875 C 168.96875 29.960938 140.300781 0.964844 105.003906 0.910156 Z M 105.003906 0.910156 "/>
<path style=" stroke:none;fill-rule:nonzero;fill:rgb(96.862745%,76.078431%,47.45098%);fill-opacity:1;" d="M 154.109375 24.25 C 161.960938 35.117188 166.625 48.65625 166.601562 63.339844 C 166.59375 69.011719 165.890625 74.515625 164.578125 79.753906 L 164.574219 79.753906 C 164.5625 79.8125 152.894531 120.277344 150.386719 133.566406 C 148.984375 140.980469 141.214844 150.007812 133.65625 155.457031 C 126.601562 160.546875 122.257812 167.613281 105 167.613281 C 87.746094 167.613281 83.394531 160.546875 76.34375 155.457031 C 68.789062 150.007812 61.011719 140.980469 59.617188 133.566406 C 57.105469 120.277344 45.4375 79.8125 45.425781 79.753906 C 44.113281 74.511719 43.40625 69.011719 43.398438 63.339844 C 43.375 48.664062 48.035156 35.128906 55.882812 24.261719 C 46.628906 35.492188 41.0625 49.933594 41.089844 65.6875 C 41.097656 71.359375 41.828125 76.863281 43.191406 82.101562 C 43.203125 82.160156 55.3125 122.625 57.914062 135.914062 C 59.363281 143.328125 67.429688 152.355469 75.269531 157.804688 C 82.585938 162.894531 87.097656 169.960938 105 169.960938 C 122.902344 169.960938 127.414062 162.894531 134.726562 157.804688 C 142.570312 152.355469 150.632812 143.328125 152.085938 135.914062 C 154.6875 122.625 166.792969 82.160156 166.804688 82.101562 L 166.808594 82.101562 C 168.171875 76.859375 168.902344 71.359375 168.910156 65.6875 C 168.9375 49.929688 163.367188 35.484375 154.109375 24.25 Z M 154.109375 24.25 "/>
<path style="fill:none;stroke-width:1.5;stroke-linecap:butt;stroke-linejoin:miter;stroke:rgb(81.960784%,55.686275%,19.607843%);stroke-opacity:1;stroke-miterlimit:4;" d="M 100.00372 0.866815 C 66.383928 0.918899 39.081101 28.534226 39.133184 62.559524 C 39.140625 67.96131 39.836309 73.203125 41.134673 78.195685 L 41.138393 78.195685 C 41.149553 78.247768 52.678571 116.785714 55.15625 129.445685 C 56.540178 136.502976 64.21875 145.100446 71.688988 150.293899 C 78.653274 155.137649 82.950149 161.86756 100 161.86756 C 117.049851 161.86756 121.346726 155.137649 128.314732 150.293899 C 135.78125 145.100446 143.463542 136.502976 144.84375 129.445685 C 147.325149 116.785714 158.854167 78.247768 158.865327 78.195685 C 160.16369 73.203125 160.859375 67.96131 160.870536 62.559524 C 160.922619 28.534226 133.619792 0.918899 100.00372 0.866815 Z M 100.00372 0.866815 " transform="matrix(1.05,0,0,1.05,0.000000105,0)"/>
<path style=" stroke:none;fill-rule:nonzero;fill:url(#linear1);" d="M 105.765625 149.375 C 98.269531 149.390625 96.722656 145.890625 96.722656 145.890625 C 103.941406 146.355469 107.578125 146.351562 114.796875 145.859375 C 114.796875 145.859375 112.355469 149.359375 105.765625 149.375 Z M 105.765625 149.375 "/>
<path style=" stroke:none;fill-rule:nonzero;fill:rgb(94.509804%,56.078431%,46.666667%);fill-opacity:1;" d="M 85.257812 140.808594 C 89.625 140.234375 93.710938 137.339844 100.355469 136.296875 C 103.46875 135.808594 104.222656 136.820312 105.675781 136.839844 C 107.230469 136.859375 109.242188 135.933594 110.964844 136.167969 C 119.003906 137.257812 118.046875 139.40625 125.816406 140.566406 C 121.660156 142.484375 119.910156 147.726562 105.398438 147.714844 C 91.300781 147.703125 88.597656 142.289062 85.257812 140.808594 Z M 85.257812 140.808594 "/>
<path style=" stroke:none;fill-rule:nonzero;fill:rgb(100%,100%,100%);fill-opacity:1;" d="M 94.132812 141.5625 C 94.71875 140.863281 101.613281 139.976562 105.828125 139.980469 C 110.296875 139.980469 117.265625 140.609375 117.652344 141.542969 C 111.34375 141.703125 98.996094 141.675781 94.132812 141.5625 Z M 94.132812 141.5625 "/>
<path style=" stroke:none;fill-rule:nonzero;fill:rgb(76.470588%,27.058824%,14.901961%);fill-opacity:1;" d="M 125.546875 140.414062 C 122.972656 140.664062 120.347656 141.132812 117.714844 141.308594 C 116.324219 140.355469 109.792969 139.789062 105.792969 139.796875 C 102.269531 139.800781 96.636719 140.46875 94.570312 141.175781 C 94.207031 141.265625 93.898438 141.375 93.699219 141.488281 C 88.746094 141.214844 85.566406 140.597656 85.484375 140.589844 C 85.136719 140.554688 84.851562 140.695312 84.855469 140.902344 C 84.859375 141.09375 85.152344 141.042969 85.472656 141.09375 C 85.496094 141.097656 85.5625 141.105469 85.542969 141.101562 C 98.792969 142.769531 112.269531 142.679688 125.484375 140.933594 C 125.828125 140.886719 126.167969 140.933594 126.171875 140.726562 C 126.175781 140.515625 125.894531 140.378906 125.546875 140.414062 Z M 105.511719 141.707031 C 101.988281 141.707031 98.617188 141.59375 96.136719 141.515625 C 96.1875 141.363281 96.21875 141.285156 96.269531 141.132812 C 98.660156 140.613281 102.785156 140.171875 105.828125 140.167969 C 108.863281 140.164062 112.859375 140.453125 115.277344 140.941406 C 115.359375 141.167969 115.402344 141.277344 115.480469 141.503906 C 112.773438 141.589844 109.285156 141.710938 105.511719 141.707031 Z M 105.511719 141.707031 "/>
<path style=" stroke:none;fill-rule:nonzero;fill:rgb(97.647059%,61.960784%,52.941176%);fill-opacity:1;" d="M 105.261719 146.171875 C 100.257812 146.164062 94.148438 145.214844 90.074219 143.207031 C 99.464844 143.507812 110.402344 143.558594 119.785156 143.199219 C 115.488281 145.402344 110.609375 146.1875 105.261719 146.171875 Z M 105.730469 138.820312 C 110.851562 138.8125 115.445312 139.230469 120.148438 140.089844 C 117.808594 139.066406 115.9375 137.957031 113.074219 137.503906 C 111.792969 137.300781 111.042969 137.050781 109.777344 137.285156 C 108.5 137.523438 106.421875 137.695312 105.417969 137.648438 C 102.820312 137.519531 101.484375 137.238281 99.515625 137.398438 C 96.25 137.664062 95.242188 138.722656 92.671875 139.820312 C 97.492188 139.457031 100.683594 138.828125 105.730469 138.820312 Z M 105.730469 138.820312 "/>
<path style=" stroke:none;fill-rule:nonzero;fill:rgb(100%,67.45098%,59.215686%);fill-opacity:1;" d="M 96.871094 144.070312 C 100.25 143.867188 112.113281 143.792969 114.640625 143.949219 C 110.25 145.449219 103.3125 146.308594 96.871094 144.070312 Z M 96.871094 144.070312 "/>
<path style=" stroke:none;fill-rule:nonzero;fill:url(#radial0);" d="M 80.347656 82.917969 C 84.679688 83.5625 87.839844 86.214844 90.527344 90.421875 C 90.53125 90.425781 90.539062 90.425781 90.542969 90.429688 C 90.550781 90.457031 90.5625 90.480469 90.566406 90.507812 C 90.808594 91.457031 89.796875 92.226562 88.53125 92.808594 C 84.023438 93.386719 79.6875 94.21875 75.117188 93.632812 C 65.96875 92.460938 65.804688 88.425781 65.359375 87.367188 C 65.121094 86.328125 65.054688 86.027344 65.066406 85.03125 C 67.269531 83.738281 68.886719 83.472656 70.597656 83.136719 C 72.605469 82.742188 77.074219 82.433594 80.347656 82.917969 Z M 80.347656 82.917969 "/>
<path style=" stroke:none;fill-rule:nonzero;fill:rgb(91.764706%,18.039216%,18.039216%);fill-opacity:1;" d="M 76.667969 87.921875 L 72.476562 86.964844 C 72.382812 87.371094 72.332031 87.792969 72.332031 88.226562 C 72.332031 88.660156 72.382812 89.082031 72.476562 89.488281 L 78 88.226562 Z M 76.667969 87.921875 "/>
<path style=" stroke:none;fill-rule:nonzero;fill:rgb(94.117647%,57.647059%,18.823529%);fill-opacity:1;" d="M 73.570312 91.761719 C 74.097656 92.421875 74.773438 92.957031 75.542969 93.328125 L 78 88.226562 Z M 73.570312 91.761719 "/>
<path style=" stroke:none;fill-rule:nonzero;fill:rgb(39.215686%,22.352941%,55.686275%);fill-opacity:1;" d="M 78 93.898438 C 78.882812 93.898438 79.714844 93.691406 80.457031 93.332031 L 78 88.226562 Z M 78 93.898438 "/>
<path style=" stroke:none;fill-rule:nonzero;fill:rgb(22.352941%,23.137255%,59.215686%);fill-opacity:1;" d="M 78 88.226562 L 82.429688 91.761719 C 82.953125 91.105469 83.332031 90.332031 83.523438 89.488281 Z M 78 88.226562 "/>
<path style=" stroke:none;fill-rule:nonzero;fill:rgb(0%,66.666667%,30.980392%);fill-opacity:1;" d="M 78 88.226562 L 79.726562 87.832031 L 83.523438 86.964844 C 83.332031 86.121094 82.953125 85.347656 82.429688 84.695312 Z M 78 88.226562 "/>
<path style=" stroke:none;fill-rule:nonzero;fill:rgb(98.039216%,90.196078%,21.176471%);fill-opacity:1;" d="M 80.457031 83.121094 C 79.710938 82.761719 78.882812 82.558594 78 82.558594 L 78 88.226562 Z M 80.457031 83.121094 "/>
<path style=" stroke:none;fill-rule:nonzero;fill:rgb(61.176471%,17.647059%,56.862745%);fill-opacity:1;" d="M 75.542969 83.125 C 74.773438 83.496094 74.097656 84.03125 73.570312 84.695312 L 78 88.226562 Z M 75.542969 83.125 "/>
<path style=" stroke:none;fill-rule:nonzero;fill:rgb(91.764706%,18.039216%,18.039216%);fill-opacity:1;" d="M 78 88.226562 L 83.523438 89.488281 C 83.617188 89.082031 83.671875 88.660156 83.671875 88.226562 C 83.671875 87.792969 83.617188 87.371094 83.523438 86.964844 L 79.726562 87.832031 Z M 78 88.226562 "/>
<path style=" stroke:none;fill-rule:nonzero;fill:rgb(60.784314%,19.607843%,55.294118%);fill-opacity:1;" d="M 78 88.226562 L 80.457031 93.332031 C 81.226562 92.957031 81.902344 92.421875 82.429688 91.761719 Z M 78 88.226562 "/>
<path style=" stroke:none;fill-rule:nonzero;fill:rgb(99.215686%,91.372549%,16.862745%);fill-opacity:1;" d="M 78 88.226562 L 75.542969 93.332031 C 76.285156 93.691406 77.117188 93.898438 78 93.898438 Z M 78 88.226562 "/>
<path style=" stroke:none;fill-rule:nonzero;fill:rgb(0%,66.666667%,30.980392%);fill-opacity:1;" d="M 78 88.226562 L 72.476562 89.488281 C 72.667969 90.332031 73.046875 91.105469 73.570312 91.761719 Z M 78 88.226562 "/>
<path style=" stroke:none;fill-rule:nonzero;fill:rgb(39.607843%,21.568627%,56.078431%);fill-opacity:1;" d="M 78 88.226562 L 78 82.558594 C 77.117188 82.558594 76.285156 82.761719 75.542969 83.121094 Z M 78 88.226562 "/>
<path style=" stroke:none;fill-rule:nonzero;fill:rgb(92.54902%,57.254902%,21.176471%);fill-opacity:1;" d="M 78 88.226562 L 82.429688 84.691406 C 81.902344 84.03125 81.226562 83.492188 80.457031 83.121094 Z M 78 88.226562 "/>
<path style=" stroke:none;fill-rule:nonzero;fill:rgb(22.352941%,23.137255%,59.215686%);fill-opacity:1;" d="M 78 88.226562 L 73.570312 84.691406 C 73.046875 85.347656 72.667969 86.121094 72.476562 86.964844 L 76.667969 87.921875 Z M 78 88.226562 "/>
<use xlink:href="#surface6" mask="url(#mask0)"/>
<path style=" stroke:none;fill-rule:nonzero;fill:rgb(0%,0%,0%);fill-opacity:1;" d="M 80.203125 88.226562 C 80.203125 89.445312 79.21875 90.429688 78 90.429688 C 76.78125 90.429688 75.796875 89.445312 75.796875 88.226562 C 75.796875 87.007812 76.78125 86.023438 78 86.023438 C 79.21875 86.023438 80.203125 87.007812 80.203125 88.226562 Z M 80.203125 88.226562 "/>
<use xlink:href="#surface9" mask="url(#mask1)"/>
<use xlink:href="#surface12" mask="url(#mask2)"/>
<path style=" stroke:none;fill-rule:nonzero;fill:rgb(100%,80.392157%,53.72549%);fill-opacity:1;" d="M 59.914062 87.832031 C 62.960938 98.527344 66.980469 109.863281 76.628906 110.199219 C 86.277344 110.539062 97.542969 103.359375 97.691406 89.1875 C 97.855469 73.339844 87.792969 67.089844 78.144531 66.753906 C 68.496094 66.417969 55.375 71.890625 59.914062 87.832031 Z M 65.359375 87.367188 C 65.121094 86.328125 65.054688 86.027344 65.066406 85.03125 C 66.984375 83.886719 68.886719 83.570312 70.597656 83.230469 C 72.601562 82.835938 77.074219 82.433594 80.347656 82.917969 C 84.679688 83.5625 87.839844 86.214844 90.527344 90.421875 C 90.53125 90.425781 90.539062 90.425781 90.542969 90.429688 C 90.550781 90.457031 90.5625 90.480469 90.566406 90.507812 C 90.808594 91.457031 89.796875 92.226562 88.53125 92.808594 C 84.023438 93.386719 79.6875 94.21875 75.117188 93.632812 C 65.96875 92.460938 65.804688 88.425781 65.359375 87.367188 Z M 65.359375 87.367188 "/>
<path style=" stroke:none;fill-rule:nonzero;fill:url(#radial1);" d="M 77.976562 98.785156 C 86.722656 100.109375 94.84375 95.941406 96.109375 89.46875 C 97.375 82.996094 91.3125 76.675781 82.566406 75.347656 C 73.816406 74.027344 65.703125 78.195312 64.4375 84.667969 C 63.171875 91.140625 69.226562 97.457031 77.976562 98.785156 Z M 65.066406 85.03125 C 67.074219 83.953125 68.882812 83.570312 70.59375 83.230469 C 72.601562 82.835938 77.070312 82.433594 80.34375 82.917969 C 84.679688 83.5625 87.839844 86.214844 90.523438 90.421875 C 90.527344 90.425781 90.539062 90.425781 90.542969 90.429688 C 90.550781 90.457031 90.5625 90.480469 90.566406 90.507812 C 90.808594 91.457031 89.796875 92.226562 88.53125 92.808594 C 84.023438 93.386719 79.6875 94.21875 75.117188 93.632812 C 65.96875 92.460938 65.804688 88.425781 65.359375 87.367188 C 65.121094 86.328125 65.054688 86.027344 65.066406 85.03125 Z M 65.066406 85.03125 "/>
<path style=" stroke:none;fill-rule:nonzero;fill:url(#radial2);" d="M 65.359375 87.367188 C 65.121094 86.328125 65.054688 86.027344 65.066406 85.03125 C 67.042969 83.921875 68.886719 83.570312 70.597656 83.230469 C 72.601562 82.835938 77.074219 82.433594 80.347656 82.917969 C 84.679688 83.5625 87.839844 86.214844 90.527344 90.421875 C 90.53125 90.425781 90.539062 90.425781 90.542969 90.429688 C 90.550781 90.457031 90.5625 90.480469 90.566406 90.507812 C 90.808594 91.457031 89.796875 92.226562 88.53125 92.808594 C 84.023438 93.386719 79.6875 94.21875 75.117188 93.632812 C 65.96875 92.460938 65.804688 88.425781 65.359375 87.367188 Z M 65.359375 87.367188 "/>
<path style=" stroke:none;fill-rule:nonzero;fill:rgb(81.960784%,55.686275%,19.607843%);fill-opacity:1;" d="M 79.964844 80.429688 C 83.074219 80.9375 86.109375 82.371094 88.921875 84.15625 C 89.523438 84.539062 90.210938 84.976562 91.304688 85.527344 C 90.523438 85.351562 89.796875 84.945312 89.121094 84.574219 C 89.816406 85.234375 90.464844 86.019531 90.996094 86.777344 C 88.613281 83.792969 84.097656 81.546875 80.261719 80.777344 C 76.574219 80.042969 69.875 80.53125 64.902344 82.707031 C 69.457031 80.148438 76.097656 79.796875 79.964844 80.429688 Z M 79.964844 80.429688 "/>
<path style=" stroke:none;fill-rule:nonzero;fill:rgb(93.333333%,69.803922%,43.529412%);fill-opacity:1;" d="M 90.527344 90.378906 C 87.839844 86.277344 84.675781 83.6875 80.339844 83.058594 C 75.773438 82.390625 69.691406 82.847656 66.132812 84.800781 C 65.84375 84.960938 64.617188 85.980469 64.808594 84.910156 C 65.636719 83.808594 68.894531 82.527344 70.472656 82.144531 C 88.1875 77.851562 91.542969 91.871094 90.527344 90.378906 Z M 65.144531 87.132812 C 64.46875 89.082031 65.957031 93.421875 74.730469 94.222656 C 80.964844 94.792969 89.632812 92.570312 88.5625 92.699219 C 84.042969 93.253906 79.703125 94.066406 75.125 93.492188 C 64.746094 92.1875 65.921875 87.304688 65.144531 87.132812 Z M 65.144531 87.132812 "/>
<path style=" stroke:none;fill-rule:nonzero;fill:url(#radial3);" d="M 129.222656 82.917969 C 124.886719 83.5625 121.726562 86.214844 119.039062 90.421875 C 119.035156 90.425781 119.027344 90.425781 119.023438 90.429688 C 119.019531 90.457031 119.003906 90.480469 119 90.507812 C 118.757812 91.457031 119.769531 92.226562 121.035156 92.808594 C 125.542969 93.386719 129.878906 94.21875 134.449219 93.632812 C 143.597656 92.460938 143.761719 88.425781 144.207031 87.367188 C 144.445312 86.328125 144.511719 86.027344 144.5 85.03125 C 142.296875 83.738281 140.679688 83.472656 138.96875 83.136719 C 136.960938 82.742188 132.496094 82.433594 129.222656 82.917969 Z M 129.222656 82.917969 "/>
<path style=" stroke:none;fill-rule:nonzero;fill:rgb(91.764706%,18.039216%,18.039216%);fill-opacity:1;" d="M 130.613281 87.921875 L 126.417969 86.964844 C 126.328125 87.371094 126.273438 87.792969 126.273438 88.226562 C 126.273438 88.660156 126.328125 89.082031 126.421875 89.488281 L 131.945312 88.226562 Z M 130.613281 87.921875 "/>
<path style=" stroke:none;fill-rule:nonzero;fill:rgb(94.117647%,57.647059%,18.823529%);fill-opacity:1;" d="M 127.515625 91.761719 C 128.042969 92.421875 128.71875 92.957031 129.488281 93.328125 L 131.945312 88.226562 Z M 127.515625 91.761719 "/>
<path style=" stroke:none;fill-rule:nonzero;fill:rgb(39.215686%,22.352941%,55.686275%);fill-opacity:1;" d="M 131.945312 93.898438 C 132.828125 93.898438 133.660156 93.691406 134.402344 93.332031 L 131.945312 88.226562 Z M 131.945312 93.898438 "/>
<path style=" stroke:none;fill-rule:nonzero;fill:rgb(22.352941%,23.137255%,59.215686%);fill-opacity:1;" d="M 131.945312 88.226562 L 136.375 91.761719 C 136.898438 91.105469 137.277344 90.332031 137.46875 89.488281 Z M 131.945312 88.226562 "/>
<path style=" stroke:none;fill-rule:nonzero;fill:rgb(0%,66.666667%,30.980392%);fill-opacity:1;" d="M 131.945312 88.226562 L 133.671875 87.832031 L 137.46875 86.964844 C 137.277344 86.121094 136.898438 85.347656 136.375 84.695312 Z M 131.945312 88.226562 "/>
<path style=" stroke:none;fill-rule:nonzero;fill:rgb(98.039216%,90.196078%,21.176471%);fill-opacity:1;" d="M 134.402344 83.121094 C 133.660156 82.761719 132.828125 82.554688 131.945312 82.554688 L 131.945312 88.226562 Z M 134.402344 83.121094 "/>
<path style=" stroke:none;fill-rule:nonzero;fill:rgb(61.176471%,17.647059%,56.862745%);fill-opacity:1;" d="M 129.488281 83.125 C 128.71875 83.496094 128.042969 84.03125 127.515625 84.695312 L 131.945312 88.226562 Z M 129.488281 83.125 "/>
<path style=" stroke:none;fill-rule:nonzero;fill:rgb(91.764706%,18.039216%,18.039216%);fill-opacity:1;" d="M 131.945312 88.226562 L 137.46875 89.488281 C 137.5625 89.082031 137.617188 88.660156 137.617188 88.226562 C 137.617188 87.792969 137.5625 87.371094 137.46875 86.964844 L 133.671875 87.832031 Z M 131.945312 88.226562 "/>
<path style=" stroke:none;fill-rule:nonzero;fill:rgb(60.784314%,19.607843%,55.294118%);fill-opacity:1;" d="M 131.945312 88.226562 L 134.402344 93.332031 C 135.171875 92.957031 135.847656 92.421875 136.375 91.761719 Z M 131.945312 88.226562 "/>
<path style=" stroke:none;fill-rule:nonzero;fill:rgb(99.215686%,91.372549%,16.862745%);fill-opacity:1;" d="M 131.945312 88.226562 L 129.488281 93.332031 C 130.230469 93.691406 131.0625 93.898438 131.945312 93.898438 Z M 131.945312 88.226562 "/>
<path style=" stroke:none;fill-rule:nonzero;fill:rgb(0%,66.666667%,30.980392%);fill-opacity:1;" d="M 131.945312 88.226562 L 126.421875 89.488281 C 126.613281 90.332031 126.992188 91.105469 127.515625 91.761719 Z M 131.945312 88.226562 "/>
<path style=" stroke:none;fill-rule:nonzero;fill:rgb(39.607843%,21.568627%,56.078431%);fill-opacity:1;" d="M 131.945312 88.226562 L 131.945312 82.554688 C 131.0625 82.554688 130.230469 82.761719 129.488281 83.121094 Z M 131.945312 88.226562 "/>
<path style=" stroke:none;fill-rule:nonzero;fill:rgb(92.54902%,57.254902%,21.176471%);fill-opacity:1;" d="M 131.945312 88.226562 L 136.375 84.691406 C 135.847656 84.03125 135.171875 83.492188 134.402344 83.121094 Z M 131.945312 88.226562 "/>
<path style=" stroke:none;fill-rule:nonzero;fill:rgb(22.352941%,23.137255%,59.215686%);fill-opacity:1;" d="M 131.945312 88.226562 L 127.515625 84.691406 C 126.992188 85.347656 126.613281 86.121094 126.421875 86.964844 L 130.613281 87.921875 Z M 131.945312 88.226562 "/>
<use xlink:href="#surface15" mask="url(#mask3)"/>
<path style=" stroke:none;fill-rule:nonzero;fill:rgb(0%,0%,0%);fill-opacity:1;" d="M 134.148438 88.226562 C 134.148438 89.445312 133.164062 90.429688 131.945312 90.429688 C 130.726562 90.429688 129.742188 89.445312 129.742188 88.226562 C 129.742188 87.007812 130.726562 86.023438 131.945312 86.023438 C 133.164062 86.023438 134.148438 87.007812 134.148438 88.226562 Z M 134.148438 88.226562 "/>
<use xlink:href="#surface18" mask="url(#mask4)"/>
<use xlink:href="#surface21" mask="url(#mask5)"/>
<path style=" stroke:none;fill-rule:nonzero;fill:rgb(100%,80.392157%,53.72549%);fill-opacity:1;" d="M 131.421875 66.753906 C 121.773438 67.089844 111.710938 73.339844 111.875 89.1875 C 112.019531 103.359375 123.289062 110.539062 132.941406 110.199219 C 142.589844 109.863281 148.234375 93.832031 149.652344 87.832031 C 153.460938 71.703125 141.070312 66.417969 131.421875 66.753906 Z M 134.449219 93.632812 C 129.878906 94.21875 125.542969 93.386719 121.035156 92.808594 C 119.769531 92.226562 118.757812 91.457031 119 90.507812 C 119.003906 90.480469 119.019531 90.457031 119.023438 90.429688 C 119.027344 90.425781 119.035156 90.425781 119.039062 90.421875 C 121.726562 86.214844 124.886719 83.5625 129.222656 82.917969 C 132.496094 82.433594 136.964844 82.835938 138.972656 83.230469 C 140.683594 83.566406 142.585938 83.886719 144.5 85.03125 C 144.515625 86.027344 144.445312 86.328125 144.207031 87.367188 C 143.761719 88.425781 143.597656 92.460938 134.449219 93.632812 Z M 134.449219 93.632812 "/>
<path style=" stroke:none;fill-rule:nonzero;fill:url(#radial4);" d="M 145.132812 84.667969 C 143.863281 78.195312 135.75 74.027344 127 75.347656 C 118.253906 76.675781 112.191406 82.996094 113.460938 89.46875 C 114.726562 95.941406 122.84375 100.109375 131.589844 98.785156 C 140.339844 97.457031 146.398438 91.140625 145.132812 84.667969 Z M 144.207031 87.367188 C 143.761719 88.425781 143.597656 92.460938 134.449219 93.632812 C 129.878906 94.21875 125.542969 93.386719 121.035156 92.808594 C 119.769531 92.226562 118.757812 91.457031 119 90.507812 C 119.007812 90.480469 119.019531 90.457031 119.023438 90.429688 C 119.03125 90.425781 119.039062 90.425781 119.042969 90.421875 C 121.726562 86.214844 124.890625 83.5625 129.222656 82.917969 C 132.496094 82.433594 136.964844 82.835938 138.972656 83.230469 C 140.683594 83.566406 142.496094 83.953125 144.5 85.03125 C 144.515625 86.027344 144.445312 86.328125 144.207031 87.367188 Z M 144.207031 87.367188 "/>
<path style=" stroke:none;fill-rule:nonzero;fill:url(#radial5);" d="M 144.207031 87.367188 C 144.445312 86.328125 144.515625 86.027344 144.5 85.03125 C 142.523438 83.921875 140.683594 83.570312 138.972656 83.230469 C 136.964844 82.835938 132.496094 82.433594 129.222656 82.917969 C 124.886719 83.5625 121.726562 86.214844 119.042969 90.421875 C 119.039062 90.425781 119.03125 90.425781 119.023438 90.429688 C 119.019531 90.457031 119.003906 90.480469 119 90.507812 C 118.757812 91.457031 119.769531 92.226562 121.035156 92.808594 C 125.542969 93.386719 129.878906 94.21875 134.449219 93.632812 C 143.597656 92.460938 143.761719 88.425781 144.207031 87.367188 Z M 144.207031 87.367188 "/>
<path style=" stroke:none;fill-rule:nonzero;fill:rgb(81.960784%,55.686275%,19.607843%);fill-opacity:1;" d="M 129.605469 80.429688 C 126.492188 80.9375 123.457031 82.371094 120.644531 84.15625 C 120.042969 84.539062 119.355469 84.976562 118.261719 85.527344 C 119.046875 85.351562 119.769531 84.945312 120.445312 84.574219 C 119.75 85.234375 119.101562 86.019531 118.574219 86.777344 C 120.953125 83.792969 125.46875 81.546875 129.308594 80.777344 C 132.996094 80.042969 139.691406 80.53125 144.664062 82.707031 C 140.109375 80.148438 133.46875 79.796875 129.605469 80.429688 Z M 129.605469 80.429688 "/>
<path style=" stroke:none;fill-rule:nonzero;fill:rgb(93.333333%,69.803922%,43.529412%);fill-opacity:1;" d="M 139.09375 82.144531 C 140.671875 82.527344 143.929688 83.808594 144.757812 84.910156 C 144.953125 85.980469 143.722656 84.960938 143.433594 84.800781 C 139.875 82.851562 133.792969 82.394531 129.226562 83.058594 C 124.890625 83.6875 121.726562 86.277344 119.039062 90.378906 C 118.023438 91.871094 121.378906 77.851562 139.09375 82.144531 Z M 134.445312 93.492188 C 129.867188 94.066406 125.523438 93.253906 121.007812 92.699219 C 119.9375 92.570312 128.605469 94.792969 134.835938 94.222656 C 143.609375 93.421875 145.101562 89.082031 144.421875 87.132812 C 143.644531 87.304688 144.820312 92.1875 134.445312 93.492188 Z M 134.445312 93.492188 "/>
<path style=" stroke:none;fill-rule:nonzero;fill:url(#radial6);" d="M 148.050781 119.671875 C 148.085938 143.425781 128.84375 162.714844 105.066406 162.75 C 81.289062 162.789062 61.984375 143.5625 61.949219 119.804688 C 61.914062 96.054688 81.15625 76.6875 104.933594 76.648438 C 128.707031 76.613281 148.015625 95.917969 148.050781 119.671875 Z M 148.050781 119.671875 "/>
<path style=" stroke:none;fill-rule:nonzero;fill:url(#radial7);" d="M 144.375 56.699219 C 144.375 78.445312 126.746094 96.074219 105 96.074219 C 83.253906 96.074219 65.625 78.445312 65.625 56.699219 C 65.625 34.953125 83.253906 17.324219 105 17.324219 C 126.746094 17.324219 144.375 34.953125 144.375 56.699219 Z M 144.375 56.699219 "/>
<path style=" stroke:none;fill-rule:nonzero;fill:rgb(20%,20.392157%,16.470588%);fill-opacity:1;" d="M 57.484375 77.050781 C 80.859375 62.21875 101.125 78.265625 93.960938 80.578125 C 91.152344 81.484375 82.578125 69.285156 57.484375 77.050781 Z M 57.484375 77.050781 "/>
<path style=" stroke:none;fill-rule:nonzero;fill:rgb(20%,20.392157%,16.470588%);fill-opacity:1;" d="M 152.515625 77.050781 C 129.140625 62.21875 108.875 78.265625 116.039062 80.578125 C 118.847656 81.484375 127.421875 69.285156 152.515625 77.050781 Z M 152.515625 77.050781 "/>
<path style=" stroke:none;fill-rule:nonzero;fill:rgb(94.117647%,71.764706%,41.176471%);fill-opacity:1;" d="M 101.671875 92.949219 C 101.671875 92.949219 100.203125 104.625 99.546875 106.894531 C 98.097656 111.886719 93.070312 118.882812 94.042969 122.046875 C 95.996094 128.367188 101.957031 126.761719 105.09375 126.742188 C 107.996094 126.71875 113.570312 128.371094 114.714844 124.25 C 115.085938 122.921875 114.25 119.5625 114.25 119.5625 C 114.25 119.5625 111.476562 122.828125 104.933594 122.46875 C 103.066406 122.363281 100.027344 120.265625 99.992188 117.308594 C 99.949219 113.300781 101.886719 109.921875 102.308594 105.945312 C 102.628906 102.921875 101.671875 92.949219 101.671875 92.949219 Z M 101.671875 92.949219 "/>
<path style=" stroke:none;fill-rule:nonzero;fill:rgb(81.960784%,55.686275%,19.607843%);fill-opacity:1;" d="M 110.453125 124.917969 C 111.582031 124.917969 111.886719 125.257812 111.886719 125.683594 C 111.886719 126.105469 111.535156 126.761719 110.453125 126.449219 C 109.261719 126.109375 107.183594 126.265625 107.183594 126.265625 C 107.183594 126.265625 109.324219 124.917969 110.453125 124.917969 Z M 99.667969 124.917969 C 98.539062 124.917969 98.234375 125.261719 98.234375 125.6875 C 98.234375 126.109375 98.574219 126.71875 99.667969 126.453125 C 100.875 126.15625 102.9375 126.269531 102.9375 126.269531 C 102.9375 126.269531 100.800781 124.921875 99.667969 124.917969 Z M 114.25 119.5625 C 114.25 119.5625 115.8125 121.59375 115.488281 123.734375 C 115.171875 125.816406 112.015625 126.742188 112.015625 126.742188 C 112.015625 126.742188 114.207031 125.148438 114.472656 123.214844 C 114.597656 122.308594 114.25 119.5625 114.25 119.5625 Z M 94.949219 117.476562 C 94.949219 117.476562 93.808594 120.316406 94.136719 122.046875 C 94.738281 125.171875 98.027344 126.417969 98.027344 126.417969 C 98.027344 126.417969 95.972656 124.277344 95.246094 122.386719 C 94.445312 120.316406 94.949219 117.476562 94.949219 117.476562 Z M 94.949219 117.476562 "/>
<path style=" stroke:none;fill-rule:nonzero;fill:rgb(100%,84.705882%,63.921569%);fill-opacity:1;" d="M 110.398438 121.078125 C 111.492188 120.144531 111.601562 119.609375 111.375 119.261719 C 111.152344 118.910156 110.492188 118.6875 109.578125 119.816406 C 108.566406 121.054688 106.367188 121.972656 106.367188 121.972656 C 106.367188 121.972656 109.304688 122.007812 110.398438 121.078125 Z M 110.398438 121.078125 "/>
<path style=" stroke:none;fill-rule:nonzero;fill:rgb(12.54902%,12.54902%,9.803922%);fill-opacity:1;" d="M 47.222656 99.640625 C 44.679688 90.382812 43.308594 82.28125 41.40625 73.824219 L 41.492188 73.804688 C 40.773438 72.03125 38.171875 57.992188 38.148438 57.839844 C 35.496094 39.183594 43.390625 38.117188 43.230469 30.332031 C 46.554688 31.996094 49.785156 31.171875 52.699219 28.898438 C 49.636719 27.328125 50.605469 27.078125 46.535156 24.601562 C 49.402344 24.105469 51.078125 24.773438 53.511719 25.078125 C 51.429688 22.996094 47.34375 18.746094 44.6875 19.3125 L 44.515625 18.9375 C 48.359375 15.9375 53.492188 22.183594 58.117188 20.492188 C 58.257812 3.300781 83.386719 -0.269531 89.503906 -2.824219 C 97.648438 -5.921875 106.152344 -12.738281 112.132812 -13.34375 C 108.75 -9.941406 106.675781 -4.472656 106.519531 -0.371094 C 111.453125 -5.078125 111.800781 -4.941406 119.277344 -13.246094 C 119.277344 -6.566406 117.429688 -5.726562 115.027344 -1.804688 C 121.546875 -6.078125 129.679688 -18.066406 142.199219 -19.902344 L 142.339844 -19.511719 C 137.824219 -16.855469 134.332031 -12.367188 131.945312 -6.167969 C 134.316406 -9.03125 137.667969 -12.136719 141.378906 -12.699219 L 141.519531 -12.308594 C 139.195312 -10.917969 134.636719 -6.28125 133.59375 1.484375 C 138.195312 -3.652344 145.511719 -7.910156 150.535156 -9.519531 L 150.734375 -9.15625 C 146.121094 -5.40625 144.273438 1.164062 143.230469 6.746094 C 146.464844 1.9375 148.34375 0.84375 152.414062 -1.179688 C 151.105469 0.78125 151.191406 0.4375 150.148438 2.566406 C 152.664062 8.996094 160.976562 9.246094 162.398438 20.476562 C 164.109375 18.984375 164.789062 18.609375 166.753906 17.230469 L 167.050781 17.515625 C 165.574219 19.8125 164.355469 23.878906 163.542969 26.601562 C 166.460938 24.371094 170.96875 22.730469 174.144531 21.585938 L 174.363281 21.929688 C 171.6875 24.652344 168.433594 28.800781 167.894531 33.304688 C 168.945312 32.683594 168.996094 32.753906 170.363281 31.765625 C 170.363281 35 170.472656 34.589844 170.496094 36.074219 C 171.816406 34.894531 172.019531 34.730469 172.886719 33.785156 C 172.695312 67.765625 170.949219 60.992188 166.253906 84.675781 C 165.429688 88.835938 163.972656 96.101562 163.039062 99.59375 L 156.6875 100.683594 C 158.652344 77.167969 156.589844 82.296875 158.019531 67.5 C 160.128906 45.679688 142.472656 27.796875 119.140625 33.652344 C 114.421875 34.835938 95.578125 34.832031 90.859375 33.652344 C 65.085938 27.179688 55.800781 42.238281 53.035156 68.59375 C 51.679688 81.527344 51.347656 77.160156 53.3125 100.683594 Z M 47.222656 99.640625 "/>
<path style=" stroke:none;fill-rule:nonzero;fill:rgb(18.431373%,18.431373%,16.470588%);fill-opacity:1;" d="M 170.496094 36.078125 C 170.472656 34.589844 170.363281 35 170.363281 31.765625 C 168.996094 32.753906 168.945312 32.683594 167.894531 33.304688 C 168.433594 28.804688 171.683594 24.652344 174.363281 21.929688 L 174.140625 21.585938 C 170.96875 22.734375 166.460938 24.375 163.542969 26.601562 C 164.351562 23.882812 165.574219 19.816406 167.050781 17.519531 L 166.753906 17.234375 C 164.785156 18.609375 164.109375 18.984375 162.394531 20.480469 C 160.976562 9.246094 152.664062 8.996094 150.148438 2.566406 C 151.1875 0.4375 151.101562 0.78125 152.414062 -1.175781 C 148.34375 0.84375 146.460938 1.9375 143.226562 6.75 C 144.269531 1.164062 146.121094 -5.402344 150.730469 -9.15625 L 150.535156 -9.519531 C 145.511719 -7.910156 138.195312 -3.652344 133.59375 1.484375 C 134.636719 -6.28125 139.191406 -10.917969 141.519531 -12.308594 L 141.378906 -12.695312 C 137.667969 -12.136719 134.3125 -9.027344 131.945312 -6.167969 C 134.332031 -12.367188 137.824219 -16.851562 142.335938 -19.511719 L 142.199219 -19.898438 C 129.675781 -18.066406 121.546875 -6.078125 115.023438 -1.804688 C 117.425781 -5.722656 119.277344 -6.566406 119.277344 -13.246094 C 111.800781 -4.941406 111.453125 -5.078125 106.519531 -0.367188 C 106.671875 -4.472656 108.746094 -9.941406 112.132812 -13.34375 C 106.152344 -12.734375 97.648438 -5.921875 89.503906 -2.824219 C 83.386719 -0.269531 58.257812 3.300781 58.117188 20.492188 C 53.492188 22.183594 48.359375 15.941406 44.515625 18.941406 L 44.6875 19.3125 C 47.34375 18.746094 51.429688 22.996094 53.511719 25.078125 C 51.078125 24.773438 49.402344 24.105469 46.535156 24.601562 C 50.605469 27.078125 49.636719 27.328125 52.699219 28.902344 C 49.785156 31.171875 46.554688 32 43.230469 30.335938 C 43.390625 38.121094 35.496094 39.183594 38.148438 57.84375 C 38.171875 57.992188 40.773438 72.03125 41.492188 73.804688 L 41.40625 73.828125 C 43.308594 82.28125 44.679688 90.386719 47.222656 99.640625 L 47.25 99.644531 C 46.554688 82.378906 35.679688 57.835938 42.0625 42.117188 C 42.894531 40.0625 46.117188 34.648438 46.117188 34.648438 C 46.117188 34.648438 56.222656 33.324219 56.699219 29.398438 C 56.699219 29.398438 54.601562 28.351562 53.550781 27.300781 C 55.648438 28.351562 55.648438 25.199219 57.75 26.25 C 57.75 24.148438 54.601562 25.199219 54.601562 23.101562 C 56.699219 23.101562 58.800781 23.101562 60.898438 25.199219 C 59.851562 19.949219 60.898438 14.699219 65.101562 11.550781 C 75.601562 3.148438 89.25 4.199219 99.75 -4.199219 C 98.699219 1.050781 97.648438 6.300781 97.648438 11.550781 C 103.949219 8.398438 106.050781 2.101562 111.300781 -2.101562 C 112.351562 2.101562 110.25 7.351562 110.25 11.550781 C 113.398438 4.199219 117.601562 -3.148438 127.050781 -5.25 C 122.851562 -1.050781 122.851562 5.25 122.851562 10.5 C 122.851562 6.300781 127.050781 4.199219 128.101562 1.050781 C 128.101562 5.25 128.101562 9.449219 128.101562 13.648438 C 130.199219 7.351562 134.398438 4.199219 139.648438 2.101562 C 135.449219 6.300781 136.5 10.5 135.449219 15.75 C 138.601562 12.601562 142.800781 11.550781 145.949219 8.398438 C 149.101562 14.699219 147 19.949219 147 26.25 C 148.050781 21 153.300781 17.851562 156.449219 13.648438 C 157.5 18.898438 157.5 24.148438 156.449219 29.398438 C 157.5 26.25 159.601562 24.148438 160.648438 21 C 160.648438 26.101562 159.949219 30.515625 158.570312 34.800781 C 159.890625 33.273438 162.039062 32.582031 162.75 30.449219 C 162.75 34.992188 162.75 38.75 162.75 43.078125 C 163.359375 41.828125 165.15625 41.390625 165.898438 39.898438 C 165.003906 43.484375 165.632812 46.308594 165.839844 49.667969 C 166.226562 47.609375 168.207031 46.347656 168.925781 44.453125 C 168.96875 43.636719 169.011719 42.816406 169.050781 42 C 169.289062 42.957031 169.191406 43.746094 168.925781 44.453125 C 167.96875 63.109375 166.203125 81.742188 162.355469 99.710938 L 163.035156 99.59375 C 163.972656 96.105469 165.425781 88.839844 166.25 84.675781 C 170.949219 60.996094 172.691406 67.769531 172.882812 33.789062 C 172.015625 34.730469 171.816406 34.898438 170.496094 36.078125 Z M 170.496094 36.078125 "/>
<path style=" stroke:none;fill-rule:nonzero;fill:rgb(0%,0%,0%);fill-opacity:1;" d="M 176.167969 20.679688 C 170.972656 21.554688 167.339844 23.238281 164.566406 25.140625 C 164.96875 24.085938 166.867188 18.140625 168.914062 15.640625 C 165.773438 17.039062 163.957031 18.539062 162.90625 19.324219 C 162.90625 18.242188 162.488281 16.988281 162.285156 16.34375 C 162.089844 15.800781 161.921875 15.171875 160.953125 13.59375 C 155.523438 5.929688 155.183594 9.136719 150.738281 3.269531 C 151.546875 1.371094 152.71875 -0.480469 154.191406 -2.011719 C 150.089844 -1.429688 147.929688 0.167969 145.328125 2.726562 C 145.289062 2.765625 145.257812 2.808594 145.222656 2.851562 C 146.851562 -3.582031 150.042969 -9.15625 156.3125 -11.25 C 148.558594 -11.53125 138.960938 -5.800781 134.136719 -0.078125 C 136.21875 -6.777344 139.015625 -9.972656 143.167969 -12.941406 C 140.179688 -13.382812 137.25 -12.164062 134.933594 -10.230469 C 137.601562 -14.847656 141.566406 -18.527344 144.753906 -20.238281 C 144.300781 -20.25 143.765625 -20.28125 143.179688 -20.238281 C 142.363281 -20.449219 137.425781 -19.644531 135.660156 -18.882812 C 126.914062 -15.46875 120.550781 -7.519531 117.820312 -4.941406 C 119.832031 -8.191406 119.929688 -10.503906 119.5625 -13.886719 C 118.875 -13.296875 107.367188 -2.277344 107.226562 -2.136719 C 108.042969 -6.660156 109.582031 -9.421875 112.496094 -13.464844 C 107.300781 -14.4375 94.296875 -5.886719 86.238281 -3.605469 C 77.789062 -1.320312 56.832031 3.453125 57.792969 20.226562 C 53.28125 21.089844 46.679688 13.847656 43.21875 19.921875 C 45.996094 18.273438 49.675781 22.246094 52.238281 24.511719 C 51.1875 24.339844 47.675781 23.515625 45.980469 24.648438 C 47.96875 25.421875 49.707031 27.726562 52.164062 28.953125 C 52.195312 28.964844 52.226562 28.976562 52.257812 28.996094 C 50.011719 30.179688 47.359375 31.132812 44.917969 30.457031 C 44.550781 30.351562 44.308594 30.289062 44.308594 30.277344 C 44.027344 30.152344 43.722656 30.023438 43.398438 29.878906 L 43.386719 29.878906 L 43.375 29.867188 C 43.238281 29.792969 43.101562 29.71875 42.957031 29.648438 C 43.683594 35.535156 34.746094 40.308594 35.730469 52.769531 C 36.136719 60.433594 40.929688 83.75 46.953125 99.5625 L 47.457031 99.714844 C 44.949219 90.65625 43.492188 82.136719 41.613281 73.777344 C 41.449219 73.777344 38.386719 57.980469 38.355469 57.808594 C 35.726562 39.292969 43.601562 37.953125 43.449219 30.675781 C 46.726562 32.3125 50.308594 31.132812 53.089844 28.859375 C 49.8125 27.230469 50.511719 26.769531 47.125 24.710938 C 49.394531 24.316406 52.167969 25.21875 54.074219 25.339844 C 51.613281 22.878906 47.460938 18.503906 44.644531 19.105469 C 48.390625 16.179688 53.566406 22.539062 58.328125 20.636719 C 58.328125 3.433594 83.238281 0.0195312 89.585938 -2.632812 C 97.21875 -5.535156 106.683594 -12.582031 111.570312 -13.078125 C 109.011719 -10.496094 106.300781 -4.78125 106.300781 0.128906 C 111.375 -4.738281 111.875 -4.714844 119.070312 -12.699219 C 119.070312 -6.386719 116.710938 -5.257812 114.417969 -1.183594 C 121.152344 -5.066406 129.304688 -17.800781 142.230469 -19.695312 C 136.820312 -16.503906 133.375 -10.953125 131.300781 -5.023438 C 133.769531 -8.238281 137.390625 -11.882812 141.410156 -12.492188 C 139.300781 -11.230469 134.207031 -6.417969 133.304688 2.136719 C 137.867188 -3.234375 145.472656 -7.675781 150.597656 -9.320312 C 145.765625 -5.382812 143.914062 1.570312 142.839844 7.710938 C 144.609375 5.007812 146.363281 2.570312 149.109375 0.84375 C 149.121094 0.832031 149.140625 0.824219 149.152344 0.824219 C 150.230469 0.0898438 149.949219 0.289062 151.796875 -0.636719 C 151.09375 0.414062 151.03125 0.277344 149.917969 2.554688 C 152.464844 9.25 160.96875 9.289062 162.234375 20.898438 C 164.183594 19.167969 164.796875 18.859375 166.875 17.402344 C 165.253906 19.917969 163.953125 24.507812 163.148438 27.1875 C 166.195312 24.578125 171.839844 22.640625 174.214844 21.78125 C 171.0625 24.984375 168.003906 29.230469 167.640625 33.710938 C 168.285156 33.277344 169.105469 32.933594 170.152344 32.175781 C 170.152344 35.035156 170.285156 34.652344 170.285156 36.542969 C 170.839844 36.039062 172.09375 34.957031 172.671875 34.328125 C 172.464844 67.628906 170.699219 61.171875 166.042969 84.632812 C 164.304688 93.429688 163.386719 97.496094 162.808594 99.632812 L 163.257812 99.539062 C 167.023438 88.25 174.53125 62.746094 174.195312 49.542969 C 174.160156 44.609375 173.082031 34.316406 173.027344 33.269531 C 173.007812 33.285156 170.839844 35.335938 170.8125 35.335938 C 170.8125 34.800781 170.59375 32.515625 170.59375 31.273438 C 170.222656 31.558594 169.441406 32.089844 168.398438 32.703125 C 169.847656 28.328125 172.050781 25.613281 176.167969 20.679688 Z M 176.167969 20.679688 "/>
</g>
</svg>
